<svg width="988" height="329" viewBox="0 0 988 329" fill="none" xmlns="http://www.w3.org/2000/svg">
            <g clip-path="url(#clip0_1_416)">
            <path d="M286.46 243.99C251.457 222.376 249.771 171.543 269.426 144.318C289.882 115.983 338.315 108.866 365.141 135.437C365.141 130.364 365.141 125.843 365.141 120.825C375.663 120.825 385.607 120.825 396 120.825C396 164.324 396 207.961 396 252.032C386.719 252.032 377.329 252.032 367.426 252.032C367.426 247.068 367.426 242.11 367.426 236.137C341.888 258.598 314.983 258.694 286.46 243.99ZM305.834 150.871C290.8 161.451 284.682 179.404 289.274 198.393C293.637 216.437 310.375 229.646 331.24 227.074C351.415 224.587 363.499 212.065 365.573 190.814C367.123 174.936 362.956 160.848 348.989 151.787C335.406 142.974 320.956 143.088 305.834 150.871Z" fill="white"/>
            <path d="M706.798 211.099C706.798 225.069 706.798 238.478 706.798 252.171C696.956 252.171 687.705 252.171 677.777 252.171C677.777 247.077 677.777 241.993 677.777 236.908C677.398 236.635 677.019 236.363 676.64 236.09C669.422 244.518 660.357 249.731 649.836 252.049C609.225 260.995 570.909 237.271 567.688 193.852C566.194 173.703 570.096 155.291 583.784 139.631C605.873 114.36 651.867 111.576 673.601 133.987C673.939 134.335 674.477 134.488 675.714 135.168C675.714 130.117 675.714 125.589 675.714 120.707C686.359 120.707 696.293 120.707 706.798 120.707C706.798 150.803 706.798 180.67 706.798 211.099ZM648.134 146.762C635.114 143.723 622.749 144.962 612.307 153.904C597.998 166.157 595.947 182.213 600.191 199.437C604.772 218.027 622.245 229.547 641.216 227.175C663.857 224.344 678.116 206.756 676.323 183.871C674.807 164.506 665.115 151.416 648.134 146.762Z" fill="white"/>
            <path d="M778.028 249.878C758.798 242.272 748.638 227.608 747.395 208.203C745.808 183.425 746.439 158.503 746.133 133.644C746.081 129.396 746.125 125.148 746.125 120.621C756.571 120.621 766.39 120.621 776.86 120.621C776.949 122.611 777.107 124.589 777.115 126.568C777.201 149.573 777 172.583 777.415 195.582C777.75 214.099 786.928 224.648 803.278 226.523C822.147 228.687 837.216 219.478 841.589 202.393C843.14 196.331 843.562 189.856 843.636 183.559C843.879 162.812 843.727 142.061 843.727 120.818C853.953 120.818 863.883 120.818 874.231 120.818C874.231 164.468 874.231 208.114 874.231 252.115C864.771 252.115 855.521 252.115 845.593 252.115C845.593 247.273 845.593 242.337 845.593 235.855C825.418 255.708 802.764 257.371 778.028 249.878Z" fill="white"/>
            <path d="M159.959 154.694C136.124 177.685 144.902 217.875 175.636 226.125C191.652 230.424 205.873 225.97 216.842 212.904C217.664 211.925 218.432 210.9 219.51 209.536C227.179 213.967 234.718 218.323 242.218 222.657C235.378 241.714 210.027 256.722 177.704 253.561C144.2 250.285 119.047 226.038 116.212 194.815C112.959 159.006 131.151 130.985 164.437 121.88C195.408 113.409 229.756 122.035 242.718 149.477C235.16 153.972 227.54 158.503 219.449 163.316C212.037 151.937 201.653 145.579 188.304 145.256C178.04 145.007 168.303 147.361 159.959 154.694Z" fill="white"/>
            <path d="M491.941 119.031C507.661 118.473 522.183 120.559 535.291 129.084C543.006 134.101 548.718 140.757 553.323 149.364C545.612 153.948 537.983 158.483 529.856 163.314C522.053 151.442 511.087 145.037 497.07 145.204C485.756 145.34 475.356 148.662 467.449 157.475C452.723 173.888 453.997 203.584 469.534 217.603C484.385 231.002 513.317 232.845 529.933 209.539C537.525 213.931 545.187 218.364 552.812 222.775C543.906 246.615 510.539 259.165 476.97 251.536C444.46 244.148 423.191 214.19 426.284 180.145C429.438 145.444 455.866 120.645 491.941 119.031Z" fill="white"/>
            <path d="M97.3973 148.327C92.0179 148.327 87.1911 148.327 81.5863 148.327C81.5863 141.538 81.5863 135.071 81.5863 128.604C81.5863 122.269 81.5863 115.934 81.5863 108.871C68.5036 108.871 55.7674 108.871 42.7529 108.871C42.7529 100.752 42.7529 93.3619 42.7529 85.528C55.4884 85.528 68.1125 85.528 81.459 85.528C81.459 72.15 81.459 59.1855 81.459 45.9521C89.735 45.9521 97.284 45.9521 105.376 45.9521C105.376 58.9861 105.376 71.8039 105.376 85.2041C118.668 85.2041 131.44 85.2041 144.587 85.2041C144.587 93.178 144.587 100.564 144.587 108.61C131.694 108.61 118.917 108.61 105.592 108.61C105.592 122.063 105.592 134.873 105.592 148.327C102.675 148.327 100.313 148.327 97.3973 148.327Z" fill="white"/>
            <path d="M480.432 205.924C478.878 206.234 477.325 206.544 475.002 207.007C475.11 205.024 475.191 203.531 475.67 201.305C483.849 185.596 495.678 174.694 510.194 166.495C511.615 166.377 513.036 166.26 515.161 166.084C515.082 167.883 515.017 169.387 515.143 171.335C515.336 171.779 515.344 171.691 514.948 171.755C514.393 172.589 514.233 173.358 514.121 174.103C514.168 174.077 514.164 173.969 513.784 174.051C505.179 187.612 494.474 198.506 480.432 205.924Z" fill="white"/>
            <path d="M515.292 171.783C521.011 186.773 507.646 206.596 491.001 207.675C488.229 207.854 485.436 207.714 482.353 207.405C495.636 200.475 505.902 190.283 513.67 177.454C514.228 176.532 514.017 175.141 514.164 173.969C514.164 173.969 514.168 174.077 514.54 174.081C515.056 173.287 515.2 172.489 515.344 171.691C515.344 171.691 515.336 171.779 515.292 171.783Z" fill="white"/>
            <path d="M473.784 198.875C472.761 185.108 477.446 173.943 490.228 168.075C495.484 165.662 502.064 166.147 507.85 165.732C502.714 169.398 497.038 171.925 492.99 176.055C486.052 183.134 480.131 191.215 473.784 198.875Z" fill="white"/>
            <path d="M473.853 199.26C480.131 191.215 486.052 183.134 492.99 176.055C497.038 171.925 502.714 169.398 508.063 166.155C508.761 166.191 509.053 166.222 509.769 166.374C495.678 174.694 483.849 185.596 475.847 200.854C475.058 200.639 474.49 200.142 473.853 199.26Z" fill="white"/>
            <path d="M513.784 174.051C514.017 175.141 514.228 176.532 513.669 177.454C505.902 190.283 495.636 200.475 481.833 207.415C481.287 207.378 480.959 207.014 480.531 206.287C494.474 198.506 505.179 187.612 513.784 174.051Z" fill="white"/>
            <path d="M514.948 171.755C515.2 172.489 515.055 173.287 514.492 174.106C514.233 173.358 514.393 172.589 514.948 171.755Z" fill="#132449"/>
            </g>
            <defs>
            <clipPath id="clip0_1_416">
            <rect width="988" height="329" fill="white"/>
            </clipPath>
            </defs>
            </svg>    